<svg xmlns="http://www.w3.org/2000/svg" xmlns:xlink="http://www.w3.org/1999/xlink" width="18" height="17" version="1.1" viewBox="0 0 18 17"><title>child</title><desc>Created with Sketch.</desc><g id="Page-1" fill="none" fill-rule="evenodd" stroke="none" stroke-width="1"><g id="TWITTER-PROFILE-2018" transform="translate(-128.000000, -764.000000)"><g id="Profile" transform="translate(0.000000, 341.000000)"><g id="Quick-informations" transform="translate(129.000000, 350.000000)"><g id="Sign-up" transform="translate(0.000000, 74.000000)"><g id="child"><circle id="Oval" cx="5.455" cy="9.818" r="1.091" fill="#657786" fill-rule="nonzero"/><circle id="Oval" cx="10.545" cy="9.818" r="1.091" fill="#657786" fill-rule="nonzero"/><path id="Shape" stroke="#667580" stroke-linecap="round" stroke-linejoin="round" stroke-width="1.5" d="M16,8.72727273 C16,7.64581818 15.2109091,6.75418182 14.1781818,6.58181818 C13.2894545,4.02181818 10.8625455,2.18181818 8,2.18181818 C5.13745455,2.18181818 2.71054545,4.02181818 1.82181818,6.58181818 C0.789090909,6.75418182 0,7.64581818 0,8.72727273 C0,9.80872727 0.789090909,10.7003636 1.82181818,10.8727273 C2.71054545,13.4327273 5.13745455,15.2727273 8,15.2727273 C10.8625455,15.2727273 13.2894545,13.4327273 14.1781818,10.8727273 C15.2109091,10.7003636 16,9.80872727 16,8.72727273 Z"/><path id="Shape" stroke="#667580" stroke-linecap="round" stroke-linejoin="round" stroke-width="1.5" d="M8,4.36363636 C7.81818182,1.75781818 9.21236364,0.151272727 11.6363636,0"/></g></g></g></g></g></g></svg>