<svg xmlns="http://www.w3.org/2000/svg" xmlns:xlink="http://www.w3.org/1999/xlink" width="18" height="16" version="1.1" viewBox="0 0 18 16"><title>icon</title><desc>Created with Sketch.</desc><g id="Page-1" fill="none" fill-rule="evenodd" stroke="none" stroke-width="1"><g id="TWITTER-PROFILE-2018" fill="#667580" fill-rule="nonzero" transform="translate(-345.000000, -16.000000)"><g id="Header"><g id="Left-side" transform="translate(128.000000, 8.000000)"><g id="Discover" transform="translate(217.000000, 7.000000)"><g id="icon" transform="translate(0.000000, 1.000000)"><path id="Shape" d="M9,7.86666667 L16.0294118,4.11764706 C16.5167218,3.85774835 17.1224542,4.04210169 17.3823529,4.52941176 C17.6422516,5.01672184 17.4578983,5.62245424 16.9705882,5.88235294 L9.47058824,9.88235294 C9.17647059,10.0392157 8.82352941,10.0392157 8.52941176,9.88235294 L1.02941176,5.88235294 C0.542101691,5.62245424 0.357748353,5.01672184 0.617647059,4.52941176 C0.877545765,4.04210169 1.48327816,3.85774835 1.97058824,4.11764706 L9,7.86666667 Z"/><path id="Shape" d="M15.5,13.5 L15.5,2.5 L2.5,2.5 L2.5,13.5 L15.5,13.5 Z M15.5,15.5 L2.5,15.5 C1.39571525,15.5 0.5,14.6042847 0.5,13.5 L0.5,2.5 C0.5,1.39571525 1.39571525,0.5 2.5,0.5 L15.5,0.5 C16.6042847,0.5 17.5,1.39571525 17.5,2.5 L17.5,13.5 C17.5,14.6042847 16.6042847,15.5 15.5,15.5 Z"/></g></g></g></g></g></g></svg>